<?xml version="1.0" encoding="utf-8"?>
<!-- Generator: Adobe Illustrator 16.0.0, SVG Export Plug-In . SVG Version: 6.00 Build 0)  -->
<!DOCTYPE svg PUBLIC "-//W3C//DTD SVG 1.1//EN" "http://www.w3.org/Graphics/SVG/1.1/DTD/svg11.dtd">
<svg version="1.1" id="Layer_1" xmlns="http://www.w3.org/2000/svg" xmlns:xlink="http://www.w3.org/1999/xlink" x="0px" y="0px"
	 width="88.143px" height="85px" viewBox="0 0 88.143 85" enable-background="new 0 0 88.143 85" xml:space="preserve">
<g>
	<g id="XMLID_4_">
		<g>
			<path fill="#F4D2B7" d="M28.739,7.577c2.542,1.291,4.83,2.968,7.019,4.78c0.907,0.753,1.769,1.557,2.679,2.36
				c2.201-2.219,4.661-4.07,7.241-5.769c2.098-1.378,4.357-2.384,6.804-2.98c2.526-0.616,5.058-0.542,7.611-0.225
				c3.83,0.479,7.323,1.726,10.32,4.236c2.942,2.465,4.75,5.614,5.647,9.298c0.341,1.401,0.498,2.845,0.74,4.27
				c0,1.188,0,2.373,0,3.559c-0.037,0.113-0.092,0.225-0.108,0.341c-0.348,2.717-1.153,5.296-2.411,7.728
				c-1.848,3.568-4.317,6.686-7.167,9.482c-4.646,4.562-9.368,9.046-14.059,13.563c-4.247,4.094-8.493,8.192-12.742,12.286
				c-1.055,1.017-2.632,1.069-3.724,0.09c-0.758-0.684-1.481-1.404-2.213-2.114c-2.406-2.33-4.803-4.666-7.211-6.992
				c-2.997-2.893-6.004-5.777-9.006-8.667c-1.925-1.854-3.844-3.715-5.771-5.565c-2.369-2.277-4.741-4.543-6.739-7.176
				c-2.249-2.963-3.979-6.168-4.959-9.758C0.402,29.268,0.227,28.181,0,27.107c0-1.227,0-2.453,0-3.681
				c0.079-0.462,0.177-0.92,0.233-1.384c0.472-3.878,1.774-7.403,4.399-10.363c1.691-1.906,3.719-3.341,6.061-4.353
				c2.044-0.884,4.183-1.346,6.378-1.643C21.161,5.129,25.059,5.711,28.739,7.577z"/>
		</g>
		<g>
		</g>
	</g>
</g>
</svg>
