<?xml version="1.0" encoding="utf-8"?>
<!-- Generator: Adobe Illustrator 16.0.0, SVG Export Plug-In . SVG Version: 6.00 Build 0)  -->
<!DOCTYPE svg PUBLIC "-//W3C//DTD SVG 1.1//EN" "http://www.w3.org/Graphics/SVG/1.1/DTD/svg11.dtd">
<svg version="1.1" id="Layer_1" xmlns="http://www.w3.org/2000/svg" xmlns:xlink="http://www.w3.org/1999/xlink" x="0px" y="0px"
	 width="81px" height="80.714px" viewBox="0 0 81 80.714" enable-background="new 0 0 81 80.714" xml:space="preserve">
<g>
	
		<circle fill="none" stroke="#24806E" stroke-width="3.4123" stroke-linecap="round" stroke-linejoin="round" stroke-miterlimit="10" cx="40.24" cy="41.274" r="22.848"/>
	<path fill="none" d="M57.317,10.934c-17.003-8.947-38.041-2.418-46.988,14.59C1.382,42.525,7.914,63.566,24.918,72.513
		c17.003,8.947,38.043,2.415,46.989-14.591C80.856,40.917,74.322,19.879,57.317,10.934z"/>
	<text transform="matrix(0.8521 0.5234 -0.5234 0.8521 20.8154 70.084)"><tspan x="0" y="0" fill="#24806E" font-family="'HKGrotesk-Bold'" font-size="7.962">E</tspan><tspan x="6.277" y="-0.113" fill="#24806E" font-family="'HKGrotesk-Bold'" font-size="7.962" rotate="-10.509">X</tspan><tspan x="12.817" y="-1.494" fill="#24806E" font-family="'HKGrotesk-Bold'" font-size="7.962" rotate="-20.997">P</tspan><tspan x="18.31" y="-3.744" fill="#24806E" font-family="'HKGrotesk-Bold'" font-size="7.962" rotate="-30.497">L</tspan><tspan x="23.097" y="-6.625" fill="#24806E" font-family="'HKGrotesk-Bold'" font-size="7.962" rotate="-41.157">O</tspan><tspan x="28.574" y="-11.678" fill="#24806E" font-family="'HKGrotesk-Bold'" font-size="7.962" rotate="-52.525">R</tspan><tspan x="32.348" y="-16.824" fill="#24806E" font-family="'HKGrotesk-Bold'" font-size="7.962" rotate="-62.917">E</tspan><tspan x="34.97" y="-22.354" fill="#24806E" font-family="'HKGrotesk-Bold'" font-size="7.962" rotate="-70.618"> </tspan><tspan x="36.023" y="-25.351" fill="#24806E" font-family="'HKGrotesk-Bold'" font-size="7.962" rotate="-77.956">S</tspan><tspan x="37.11" y="-31.038" fill="#24806E" font-family="'HKGrotesk-Bold'" font-size="7.962" rotate="-87.291">L</tspan><tspan x="37.322" y="-36.606" fill="#24806E" font-family="'HKGrotesk-Bold'" font-size="7.962" rotate="-97.791">O</tspan><tspan x="36.112" y="-44.01" fill="#24806E" font-family="'HKGrotesk-Bold'" font-size="7.962" rotate="-109.569">V</tspan><tspan x="33.729" y="-50.249" fill="#24806E" font-family="'HKGrotesk-Bold'" font-size="7.962" rotate="-120.32">E</tspan><tspan x="30.434" y="-55.671" fill="#24806E" font-family="'HKGrotesk-Bold'" font-size="7.962" rotate="-131.415">N</tspan><tspan x="25.636" y="-60.765" fill="#24806E" font-family="'HKGrotesk-Bold'" font-size="7.962" rotate="-140.219">I</tspan><tspan x="22.784" y="-63.149" fill="#24806E" font-family="'HKGrotesk-Bold'" font-size="7.962" rotate="-148.607">A</tspan></text>
	<path fill="none" d="M72.398,41.509c0.119,16.634-13.265,30.215-29.901,30.329c-16.63,0.12-30.208-13.271-30.329-29.901
		c-0.116-16.629,13.272-30.208,29.9-30.328C58.702,11.49,72.279,24.881,72.398,41.509z"/>
	<text transform="matrix(0.0957 -0.9954 0.9954 0.0957 11.9863 42.1357)"><tspan x="0" y="0" fill="#24806E" font-family="'HKGrotesk-Bold'" font-size="11.7312">P</tspan><tspan x="7.825" y="0.113" fill="#24806E" font-family="'HKGrotesk-Bold'" font-size="11.7312" rotate="15.454">R</tspan><tspan x="15.877" y="2.399" fill="#24806E" font-family="'HKGrotesk-Bold'" font-size="11.7312" rotate="32.695">O</tspan><tspan x="23.984" y="7.964" fill="#24806E" font-family="'HKGrotesk-Bold'" font-size="11.7312" rotate="49.369">T</tspan><tspan x="29.03" y="14.041" fill="#24806E" font-family="'HKGrotesk-Bold'" font-size="11.7312" rotate="64.739">E</tspan><tspan x="32.448" y="21.533" fill="#24806E" font-family="'HKGrotesk-Bold'" font-size="11.7312" rotate="81.105">U</tspan><tspan x="33.601" y="30.496" fill="#24806E" font-family="'HKGrotesk-Bold'" font-size="11.7312" rotate="96.831">S</tspan></text>
	
		<path fill="none" stroke="#24806E" stroke-width="3.4123" stroke-linecap="round" stroke-linejoin="round" stroke-miterlimit="10" d="
		M40.239,64.123c8.766,0,16.375-4.937,20.207-12.183l-7.425-12.859l-5.024,8.7l-7.758-13.436l-7.756,13.436l-5.024-8.7L20.035,51.94
		C23.867,59.187,31.475,64.123,40.239,64.123z"/>
	
		<line fill="none" stroke="#24806E" stroke-width="3.4123" stroke-linecap="round" stroke-linejoin="round" stroke-miterlimit="10" x1="12.167" y1="68.873" x2="23.607" y2="57.434"/>
	<circle fill="#24806E" cx="57.317" cy="10.934" r="1.36"/>
	<circle fill="#24806E" cx="63.518" cy="14.509" r="1.36"/>
	<circle fill="#24806E" cx="66.896" cy="20.424" r="1.36"/>
	<circle fill="#24806E" cx="12.225" cy="59.14" r="1.36"/>
	<circle fill="#24806E" cx="9.015" cy="52.873" r="1.36"/>
	<circle fill="#24806E" cx="7.608" cy="45.932" r="1.361"/>
</g>
</svg>
